<mxfile host="app.diagrams.net" agent="Mozilla/5.0 (Windows NT 10.0; Win64; x64) AppleWebKit/537.36 (KHTML, like Gecko) Chrome/130.0.0.0 Safari/537.36" version="24.8.2">
  <diagram name="Pagina-1" id="XRNuTaB9I9MSfYOUS6OP">
    <mxGraphModel dx="1290" dy="522" grid="1" gridSize="10" guides="1" tooltips="1" connect="1" arrows="1" fold="1" page="1" pageScale="1" pageWidth="827" pageHeight="1169" math="0" shadow="0">
      <root>
        <mxCell id="0" />
        <mxCell id="1" parent="0" />
        <mxCell id="pUwQ2fJmEz475Cd50NN1-1" value="Schip" style="whiteSpace=wrap;html=1;align=center;" vertex="1" parent="1">
          <mxGeometry x="200" y="70" width="100" height="40" as="geometry" />
        </mxCell>
        <mxCell id="pUwQ2fJmEz475Cd50NN1-2" value="Naam" style="ellipse;whiteSpace=wrap;html=1;align=center;" vertex="1" parent="1">
          <mxGeometry x="90" y="40" width="100" height="40" as="geometry" />
        </mxCell>
        <mxCell id="pUwQ2fJmEz475Cd50NN1-3" value="Passagiers" style="ellipse;whiteSpace=wrap;html=1;align=center;" vertex="1" parent="1">
          <mxGeometry x="220" y="20" width="100" height="40" as="geometry" />
        </mxCell>
        <mxCell id="pUwQ2fJmEz475Cd50NN1-4" value="Attribute" style="ellipse;whiteSpace=wrap;html=1;align=center;" vertex="1" parent="1">
          <mxGeometry x="70" y="90" width="100" height="40" as="geometry" />
        </mxCell>
        <mxCell id="pUwQ2fJmEz475Cd50NN1-5" value="Cruise" style="whiteSpace=wrap;html=1;align=center;" vertex="1" parent="1">
          <mxGeometry x="200" y="340" width="100" height="40" as="geometry" />
        </mxCell>
        <mxCell id="pUwQ2fJmEz475Cd50NN1-6" value="maakt" style="shape=rhombus;perimeter=rhombusPerimeter;whiteSpace=wrap;html=1;align=center;" vertex="1" parent="1">
          <mxGeometry x="190" y="200" width="120" height="60" as="geometry" />
        </mxCell>
        <mxCell id="pUwQ2fJmEz475Cd50NN1-7" value="" style="endArrow=none;html=1;rounded=0;" edge="1" parent="1" source="pUwQ2fJmEz475Cd50NN1-6" target="pUwQ2fJmEz475Cd50NN1-1">
          <mxGeometry relative="1" as="geometry">
            <mxPoint x="360" y="210" as="sourcePoint" />
            <mxPoint x="520" y="210" as="targetPoint" />
          </mxGeometry>
        </mxCell>
        <mxCell id="pUwQ2fJmEz475Cd50NN1-18" value="(0, 1)" style="edgeLabel;html=1;align=center;verticalAlign=middle;resizable=0;points=[];" vertex="1" connectable="0" parent="pUwQ2fJmEz475Cd50NN1-7">
          <mxGeometry x="0.5378" relative="1" as="geometry">
            <mxPoint as="offset" />
          </mxGeometry>
        </mxCell>
        <mxCell id="pUwQ2fJmEz475Cd50NN1-8" value="" style="endArrow=none;html=1;rounded=0;" edge="1" parent="1" source="pUwQ2fJmEz475Cd50NN1-6" target="pUwQ2fJmEz475Cd50NN1-5">
          <mxGeometry relative="1" as="geometry">
            <mxPoint x="360" y="210" as="sourcePoint" />
            <mxPoint x="520" y="210" as="targetPoint" />
          </mxGeometry>
        </mxCell>
        <mxCell id="pUwQ2fJmEz475Cd50NN1-19" value="(1, 1)" style="edgeLabel;html=1;align=center;verticalAlign=middle;resizable=0;points=[];" vertex="1" connectable="0" parent="pUwQ2fJmEz475Cd50NN1-8">
          <mxGeometry x="0.47" relative="1" as="geometry">
            <mxPoint as="offset" />
          </mxGeometry>
        </mxCell>
        <mxCell id="pUwQ2fJmEz475Cd50NN1-9" value="&lt;span style=&quot;border-bottom: 1px dotted&quot;&gt;Aankomst&lt;/span&gt;" style="ellipse;whiteSpace=wrap;html=1;align=center;" vertex="1" parent="1">
          <mxGeometry x="670" y="280" width="100" height="40" as="geometry" />
        </mxCell>
        <mxCell id="pUwQ2fJmEz475Cd50NN1-11" value="Vertrek" style="ellipse;whiteSpace=wrap;html=1;align=center;" vertex="1" parent="1">
          <mxGeometry x="700" y="340" width="100" height="40" as="geometry" />
        </mxCell>
        <mxCell id="pUwQ2fJmEz475Cd50NN1-12" value="Naam" style="ellipse;whiteSpace=wrap;html=1;align=center;" vertex="1" parent="1">
          <mxGeometry x="70" y="350" width="100" height="40" as="geometry" />
        </mxCell>
        <mxCell id="pUwQ2fJmEz475Cd50NN1-13" value="Vaarroute" style="whiteSpace=wrap;html=1;align=center;" vertex="1" parent="1">
          <mxGeometry x="590" y="340" width="100" height="40" as="geometry" />
        </mxCell>
        <mxCell id="pUwQ2fJmEz475Cd50NN1-14" value="Grootte" style="ellipse;whiteSpace=wrap;html=1;align=center;" vertex="1" parent="1">
          <mxGeometry x="580" y="20" width="100" height="40" as="geometry" />
        </mxCell>
        <mxCell id="pUwQ2fJmEz475Cd50NN1-15" value="volgt" style="shape=rhombus;perimeter=rhombusPerimeter;whiteSpace=wrap;html=1;align=center;" vertex="1" parent="1">
          <mxGeometry x="370" y="330" width="120" height="60" as="geometry" />
        </mxCell>
        <mxCell id="pUwQ2fJmEz475Cd50NN1-16" value="" style="endArrow=none;html=1;rounded=0;" edge="1" parent="1" source="pUwQ2fJmEz475Cd50NN1-15" target="pUwQ2fJmEz475Cd50NN1-13">
          <mxGeometry relative="1" as="geometry">
            <mxPoint x="360" y="210" as="sourcePoint" />
            <mxPoint x="520" y="210" as="targetPoint" />
          </mxGeometry>
        </mxCell>
        <mxCell id="pUwQ2fJmEz475Cd50NN1-21" value="(1, N)" style="edgeLabel;html=1;align=center;verticalAlign=middle;resizable=0;points=[];" vertex="1" connectable="0" parent="pUwQ2fJmEz475Cd50NN1-16">
          <mxGeometry x="0.396" y="-1" relative="1" as="geometry">
            <mxPoint as="offset" />
          </mxGeometry>
        </mxCell>
        <mxCell id="pUwQ2fJmEz475Cd50NN1-17" value="" style="endArrow=none;html=1;rounded=0;" edge="1" parent="1" source="pUwQ2fJmEz475Cd50NN1-15" target="pUwQ2fJmEz475Cd50NN1-5">
          <mxGeometry relative="1" as="geometry">
            <mxPoint x="360" y="210" as="sourcePoint" />
            <mxPoint x="520" y="210" as="targetPoint" />
          </mxGeometry>
        </mxCell>
        <mxCell id="pUwQ2fJmEz475Cd50NN1-20" value="(1, 1)" style="edgeLabel;html=1;align=center;verticalAlign=middle;resizable=0;points=[];" vertex="1" connectable="0" parent="pUwQ2fJmEz475Cd50NN1-17">
          <mxGeometry x="0.4343" y="2" relative="1" as="geometry">
            <mxPoint as="offset" />
          </mxGeometry>
        </mxCell>
        <mxCell id="pUwQ2fJmEz475Cd50NN1-22" value="Haven" style="whiteSpace=wrap;html=1;align=center;" vertex="1" parent="1">
          <mxGeometry x="590" y="70" width="100" height="40" as="geometry" />
        </mxCell>
        <mxCell id="pUwQ2fJmEz475Cd50NN1-23" value="Diepgang" style="ellipse;whiteSpace=wrap;html=1;align=center;" vertex="1" parent="1">
          <mxGeometry x="314" y="60" width="100" height="40" as="geometry" />
        </mxCell>
        <mxCell id="pUwQ2fJmEz475Cd50NN1-24" value="Diepgang" style="ellipse;whiteSpace=wrap;html=1;align=center;" vertex="1" parent="1">
          <mxGeometry x="690" y="20" width="100" height="40" as="geometry" />
        </mxCell>
        <mxCell id="pUwQ2fJmEz475Cd50NN1-25" value="Plaats" style="ellipse;whiteSpace=wrap;html=1;align=center;" vertex="1" parent="1">
          <mxGeometry x="700" y="70" width="100" height="40" as="geometry" />
        </mxCell>
        <mxCell id="pUwQ2fJmEz475Cd50NN1-26" value="meert aan" style="shape=rhombus;perimeter=rhombusPerimeter;whiteSpace=wrap;html=1;align=center;" vertex="1" parent="1">
          <mxGeometry x="580" y="180" width="120" height="60" as="geometry" />
        </mxCell>
        <mxCell id="pUwQ2fJmEz475Cd50NN1-27" value="" style="endArrow=none;html=1;rounded=0;" edge="1" parent="1" source="pUwQ2fJmEz475Cd50NN1-13" target="pUwQ2fJmEz475Cd50NN1-26">
          <mxGeometry relative="1" as="geometry">
            <mxPoint x="360" y="210" as="sourcePoint" />
            <mxPoint x="520" y="210" as="targetPoint" />
          </mxGeometry>
        </mxCell>
        <mxCell id="pUwQ2fJmEz475Cd50NN1-29" value="(1, N)" style="edgeLabel;html=1;align=center;verticalAlign=middle;resizable=0;points=[];" vertex="1" connectable="0" parent="pUwQ2fJmEz475Cd50NN1-27">
          <mxGeometry x="-0.576" y="1" relative="1" as="geometry">
            <mxPoint as="offset" />
          </mxGeometry>
        </mxCell>
        <mxCell id="pUwQ2fJmEz475Cd50NN1-28" value="" style="endArrow=none;html=1;rounded=0;" edge="1" parent="1" source="pUwQ2fJmEz475Cd50NN1-22" target="pUwQ2fJmEz475Cd50NN1-26">
          <mxGeometry relative="1" as="geometry">
            <mxPoint x="360" y="210" as="sourcePoint" />
            <mxPoint x="520" y="210" as="targetPoint" />
          </mxGeometry>
        </mxCell>
        <mxCell id="pUwQ2fJmEz475Cd50NN1-30" value="(0, M)" style="edgeLabel;html=1;align=center;verticalAlign=middle;resizable=0;points=[];" vertex="1" connectable="0" parent="pUwQ2fJmEz475Cd50NN1-28">
          <mxGeometry x="-0.52" y="-1" relative="1" as="geometry">
            <mxPoint as="offset" />
          </mxGeometry>
        </mxCell>
        <mxCell id="pUwQ2fJmEz475Cd50NN1-31" value="Passagier" style="whiteSpace=wrap;html=1;align=center;" vertex="1" parent="1">
          <mxGeometry x="420" y="180" width="100" height="40" as="geometry" />
        </mxCell>
        <mxCell id="pUwQ2fJmEz475Cd50NN1-32" value="zit op" style="shape=rhombus;perimeter=rhombusPerimeter;whiteSpace=wrap;html=1;align=center;" vertex="1" parent="1">
          <mxGeometry x="294" y="120" width="120" height="60" as="geometry" />
        </mxCell>
        <mxCell id="pUwQ2fJmEz475Cd50NN1-33" value="" style="endArrow=none;html=1;rounded=0;" edge="1" parent="1" source="pUwQ2fJmEz475Cd50NN1-32" target="pUwQ2fJmEz475Cd50NN1-1">
          <mxGeometry relative="1" as="geometry">
            <mxPoint x="360" y="210" as="sourcePoint" />
            <mxPoint x="520" y="210" as="targetPoint" />
          </mxGeometry>
        </mxCell>
        <mxCell id="pUwQ2fJmEz475Cd50NN1-40" value="(0, N)" style="edgeLabel;html=1;align=center;verticalAlign=middle;resizable=0;points=[];" vertex="1" connectable="0" parent="pUwQ2fJmEz475Cd50NN1-33">
          <mxGeometry x="0.2769" y="1" relative="1" as="geometry">
            <mxPoint as="offset" />
          </mxGeometry>
        </mxCell>
        <mxCell id="pUwQ2fJmEz475Cd50NN1-34" value="" style="endArrow=none;html=1;rounded=0;" edge="1" parent="1" source="pUwQ2fJmEz475Cd50NN1-32" target="pUwQ2fJmEz475Cd50NN1-31">
          <mxGeometry relative="1" as="geometry">
            <mxPoint x="360" y="210" as="sourcePoint" />
            <mxPoint x="520" y="210" as="targetPoint" />
          </mxGeometry>
        </mxCell>
        <mxCell id="pUwQ2fJmEz475Cd50NN1-39" value="(0, 1)" style="edgeLabel;html=1;align=center;verticalAlign=middle;resizable=0;points=[];" vertex="1" connectable="0" parent="pUwQ2fJmEz475Cd50NN1-34">
          <mxGeometry x="0.0463" y="1" relative="1" as="geometry">
            <mxPoint y="1" as="offset" />
          </mxGeometry>
        </mxCell>
        <mxCell id="pUwQ2fJmEz475Cd50NN1-35" value="Naam" style="ellipse;whiteSpace=wrap;html=1;align=center;" vertex="1" parent="1">
          <mxGeometry x="440" y="130" width="100" height="40" as="geometry" />
        </mxCell>
        <mxCell id="pUwQ2fJmEz475Cd50NN1-36" value="boekt met" style="shape=rhombus;perimeter=rhombusPerimeter;whiteSpace=wrap;html=1;align=center;" vertex="1" parent="1">
          <mxGeometry x="410" y="250" width="120" height="60" as="geometry" />
        </mxCell>
        <mxCell id="pUwQ2fJmEz475Cd50NN1-37" value="" style="shape=link;html=1;rounded=0;" edge="1" parent="1" source="pUwQ2fJmEz475Cd50NN1-36" target="pUwQ2fJmEz475Cd50NN1-31">
          <mxGeometry relative="1" as="geometry">
            <mxPoint x="360" y="210" as="sourcePoint" />
            <mxPoint x="520" y="210" as="targetPoint" />
          </mxGeometry>
        </mxCell>
        <mxCell id="pUwQ2fJmEz475Cd50NN1-38" value="" style="resizable=0;html=1;whiteSpace=wrap;align=right;verticalAlign=bottom;" connectable="0" vertex="1" parent="pUwQ2fJmEz475Cd50NN1-37">
          <mxGeometry x="1" relative="1" as="geometry" />
        </mxCell>
      </root>
    </mxGraphModel>
  </diagram>
</mxfile>
